<svg xmlns="http://www.w3.org/2000/svg" width="1280" height="720" viewBox="0 0 1280 720">
  <rect width="1280" height="720" fill="#06090c"/>
  <rect x="24" y="24" width="1232" height="672" rx="10" fill="#0c1218" stroke="#40515e" stroke-width="2"/>
  <rect x="44" y="44" width="1192" height="78" rx="4" fill="#111a22" stroke="#53616b"/>
  <text x="74" y="92" font-family="Arial Black, Arial" font-size="34" fill="#eaf9f1">CHEVEL ROCKET</text>
  <text x="74" y="112" font-family="Consolas, monospace" font-size="14" fill="#8eeeff">CORE CONTROL CENTER / SIMULATION MODE</text>
  <rect x="48" y="146" width="240" height="390" rx="5" fill="#0b1116" stroke="#364853"/>
  <rect x="992" y="146" width="240" height="390" rx="5" fill="#0b1116" stroke="#364853"/>
  <rect x="48" y="556" width="1184" height="116" rx="5" fill="#070c10" stroke="#364853"/>
  <rect x="312" y="146" width="656" height="390" rx="5" fill="#071014" stroke="#364853"/>
  <g stroke="#15313a" stroke-width="1">
    <path d="M312 196 H968 M312 246 H968 M312 296 H968 M312 346 H968 M312 396 H968 M312 446 H968 M312 496 H968"/>
    <path d="M362 146 V536 M412 146 V536 M462 146 V536 M512 146 V536 M562 146 V536 M612 146 V536 M662 146 V536 M712 146 V536 M762 146 V536 M812 146 V536 M862 146 V536 M912 146 V536"/>
  </g>
  <g fill="none" stroke="#8eeeff" stroke-width="8" opacity="0.82">
    <circle cx="420" cy="240" r="62"/>
    <circle cx="640" cy="240" r="62"/>
    <circle cx="860" cy="240" r="62"/>
    <circle cx="420" cy="410" r="62"/>
    <circle cx="640" cy="410" r="62"/>
    <circle cx="860" cy="410" r="62"/>
  </g>
  <g fill="#8eeeff" opacity="0.9">
    <rect x="70" y="176" width="170" height="10"/>
    <rect x="70" y="218" width="120" height="10"/>
    <rect x="70" y="260" width="160" height="10"/>
    <rect x="70" y="302" width="95" height="10"/>
    <rect x="70" y="344" width="150" height="10"/>
  </g>
  <g fill="#111a22" stroke="#79e8ff">
    <rect x="1026" y="178" width="172" height="42" rx="5"/>
    <rect x="1026" y="238" width="172" height="42" rx="5"/>
    <rect x="1026" y="298" width="172" height="42" rx="5"/>
    <rect x="1026" y="358" width="172" height="42" rx="5"/>
  </g>
  <rect x="1026" y="430" width="172" height="70" rx="8" fill="#551116" stroke="#ff4444" stroke-width="2"/>
  <text x="1052" y="474" font-family="Arial Black, Arial" font-size="18" fill="#ffffff">EMERGENCY</text>
</svg>
