<svg xmlns="http://www.w3.org/2000/svg" width="900" height="360" viewBox="0 0 900 360" role="img" aria-label="Chevel Rocket logo">
  <defs>
    <linearGradient id="metal" x1="0" x2="1" y1="0" y2="1">
      <stop offset="0" stop-color="#f6fff9"/>
      <stop offset="0.35" stop-color="#8fa7b2"/>
      <stop offset="0.72" stop-color="#2b3b45"/>
      <stop offset="1" stop-color="#d9fff0"/>
    </linearGradient>
    <linearGradient id="green" x1="0" x2="1">
      <stop offset="0" stop-color="#31ff8d"/>
      <stop offset="1" stop-color="#65d8ff"/>
    </linearGradient>
    <filter id="glow" x="-30%" y="-30%" width="160%" height="160%">
      <feGaussianBlur stdDeviation="7" result="blur"/>
      <feMerge>
        <feMergeNode in="blur"/>
        <feMergeNode in="SourceGraphic"/>
      </feMerge>
    </filter>
  </defs>
  <rect width="900" height="360" rx="36" fill="#05070a"/>
  <path d="M175 92 C215 52 282 55 318 98 C354 141 341 205 297 235 L252 266 L242 221 L176 268 L196 210 L136 218 L177 178 C148 154 146 121 175 92Z" fill="url(#metal)" stroke="#dffff1" stroke-width="4"/>
  <path d="M240 85 C272 103 289 137 284 171 C279 206 251 232 216 238 C235 212 246 180 242 149 C238 119 224 98 204 85 C216 80 228 80 240 85Z" fill="#101820" opacity="0.75"/>
  <path d="M145 235 C105 244 80 267 66 300 C109 286 144 282 182 287 C174 271 162 253 145 235Z" fill="url(#green)" filter="url(#glow)"/>
  <circle cx="276" cy="116" r="14" fill="#31ff8d" filter="url(#glow)"/>
  <path d="M80 194 C187 98 325 72 440 122" fill="none" stroke="#31ff8d" stroke-width="3" opacity="0.55"/>
  <path d="M84 306 C220 236 334 222 458 268" fill="none" stroke="#65d8ff" stroke-width="2" opacity="0.35"/>
  <text x="410" y="154" fill="#f3fff8" font-family="Segoe UI, Arial, sans-serif" font-size="58" font-weight="800" letter-spacing="4">CHEVEL</text>
  <text x="414" y="212" fill="url(#green)" font-family="Segoe UI, Arial, sans-serif" font-size="44" font-weight="700" letter-spacing="6">ROCKET</text>
  <text x="418" y="254" fill="#8fa7b2" font-family="Segoe UI, Arial, sans-serif" font-size="20" letter-spacing="2">ROBOTICS CONTROL CENTER</text>
</svg>
